# MagicaVoxel @ Ephtracy

# group
o 

# material
mtllib Player-4.mtl
usemtl palette

# normals
vn -1 0 0
vn 1 0 0
vn 0 0 1
vn 0 0 -1
vn 0 -1 0
vn 0 1 0

# texcoords
vt 0.970703 0.5
vt 0.974609 0.5
vt 0.978516 0.5
vt 0.982422 0.5

# verts
v -0.4 -1.2 0.2
v -0.4 -1.2 -0.1
v -0.4 -1.1 0.2
v -0.4 -1.1 -0.1
v -0.3 -1.3 0.3
v -0.3 -1.3 -0.2
v -0.3 -1.2 0.2
v -0.3 -1.2 -0.1
v -0.3 -1.1 0.3
v -0.3 -1.1 0.2
v -0.3 -1.1 -0.1
v -0.3 -1.1 -0.2
v -0.3 -0.9 0.2
v -0.3 -0.9 -0.1
v -0.3 -0.8 0.2
v -0.3 -0.8 -0.1
v -0.3 0.2 0.2
v -0.3 0.2 -0.1
v 0.1 -1.1 0.2
v 0.1 -1.1 -0.1
v 0.1 -0.9 0.2
v 0.1 -0.9 -0.1
v 0.1 -0.8 0.2
v 0.1 -0.8 -0.1
v 0.1 0.2 0.2
v 0.1 0.2 -0.1
v 0.3 -1.3 0.3
v 0.3 -1.3 0.2
v 0.3 -1.3 -0.1
v 0.3 -1.3 -0.2
v 0.3 -1.1 0.3
v 0.3 -1.1 0.2
v 0.3 -1.1 -0.1
v 0.3 -1.1 -0.2
v 0.4 -1.3 0.2
v 0.4 -1.3 -0.1
v 0.4 -1.1 0.2
v 0.4 -1.1 -0.1
v -0.3 -1.3 0.3
v -0.3 -1.1 0.3
v 0.3 -1.3 0.3
v 0.3 -1.1 0.3
v -0.4 -1.2 0.2
v -0.4 -1.1 0.2
v -0.3 -1.2 0.2
v -0.3 -1.1 0.2
v -0.3 -0.9 0.2
v -0.3 -0.8 0.2
v -0.3 0.2 0.2
v 0.1 -1.1 0.2
v 0.1 -0.9 0.2
v 0.1 -0.8 0.2
v 0.1 0.2 0.2
v 0.3 -1.3 0.2
v 0.3 -1.1 0.2
v 0.4 -1.3 0.2
v 0.4 -1.1 0.2
v -0.4 -1.2 -0.1
v -0.4 -1.1 -0.1
v -0.3 -1.2 -0.1
v -0.3 -1.1 -0.1
v -0.3 -0.9 -0.1
v -0.3 -0.8 -0.1
v -0.3 0.2 -0.1
v 0.1 -1.1 -0.1
v 0.1 -0.9 -0.1
v 0.1 -0.8 -0.1
v 0.1 0.2 -0.1
v 0.3 -1.3 -0.1
v 0.3 -1.1 -0.1
v 0.4 -1.3 -0.1
v 0.4 -1.1 -0.1
v -0.3 -1.3 -0.2
v -0.3 -1.1 -0.2
v 0.3 -1.3 -0.2
v 0.3 -1.1 -0.2
v -0.3 -1.3 0.3
v 0.3 -1.3 0.3
v 0.3 -1.3 0.2
v 0.4 -1.3 0.2
v 0.3 -1.3 -0.1
v 0.4 -1.3 -0.1
v -0.3 -1.3 -0.2
v 0.3 -1.3 -0.2
v -0.4 -1.2 0.2
v -0.3 -1.2 0.2
v -0.4 -1.2 -0.1
v -0.3 -1.2 -0.1
v -0.3 -1.1 0.3
v 0.3 -1.1 0.3
v -0.4 -1.1 0.2
v -0.3 -1.1 0.2
v 0.1 -1.1 0.2
v 0.3 -1.1 0.2
v 0.4 -1.1 0.2
v -0.4 -1.1 -0.1
v -0.3 -1.1 -0.1
v 0.1 -1.1 -0.1
v 0.3 -1.1 -0.1
v 0.4 -1.1 -0.1
v -0.3 -1.1 -0.2
v 0.3 -1.1 -0.2
v -0.3 0.2 0.2
v 0.1 0.2 0.2
v -0.3 0.2 -0.1
v 0.1 0.2 -0.1

# faces
f 3/2/1 2/2/1 1/2/1
f 4/2/1 2/2/1 3/2/1
f 7/2/1 6/2/1 5/2/1
f 8/2/1 6/2/1 7/2/1
f 9/2/1 7/2/1 5/2/1
f 10/2/1 7/2/1 9/2/1
f 11/2/1 6/2/1 8/2/1
f 12/2/1 6/2/1 11/2/1
f 13/3/1 11/3/1 10/3/1
f 14/3/1 11/3/1 13/3/1
f 15/4/1 14/4/1 13/4/1
f 16/4/1 14/4/1 15/4/1
f 17/1/1 16/1/1 15/1/1
f 18/1/1 16/1/1 17/1/1
f 19/3/2 20/3/2 21/3/2
f 21/3/2 20/3/2 22/3/2
f 21/4/2 22/4/2 23/4/2
f 23/4/2 22/4/2 24/4/2
f 23/1/2 24/1/2 25/1/2
f 25/1/2 24/1/2 26/1/2
f 27/2/2 28/2/2 31/2/2
f 31/2/2 28/2/2 32/2/2
f 29/2/2 30/2/2 33/2/2
f 33/2/2 30/2/2 34/2/2
f 35/2/2 36/2/2 37/2/2
f 37/2/2 36/2/2 38/2/2
f 41/2/3 40/2/3 39/2/3
f 42/2/3 40/2/3 41/2/3
f 45/2/3 44/2/3 43/2/3
f 46/2/3 44/2/3 45/2/3
f 50/3/3 47/3/3 46/3/3
f 51/4/3 48/4/3 47/4/3
f 51/3/3 47/3/3 50/3/3
f 52/1/3 49/1/3 48/1/3
f 52/4/3 48/4/3 51/4/3
f 53/1/3 49/1/3 52/1/3
f 56/2/3 55/2/3 54/2/3
f 57/2/3 55/2/3 56/2/3
f 58/2/4 59/2/4 60/2/4
f 60/2/4 59/2/4 61/2/4
f 61/3/4 62/3/4 65/3/4
f 62/4/4 63/4/4 66/4/4
f 65/3/4 62/3/4 66/3/4
f 63/1/4 64/1/4 67/1/4
f 66/4/4 63/4/4 67/4/4
f 67/1/4 64/1/4 68/1/4
f 69/2/4 70/2/4 71/2/4
f 71/2/4 70/2/4 72/2/4
f 73/2/4 74/2/4 75/2/4
f 75/2/4 74/2/4 76/2/4
f 79/2/5 78/2/5 77/2/5
f 81/2/5 79/2/5 77/2/5
f 81/2/5 80/2/5 79/2/5
f 82/2/5 80/2/5 81/2/5
f 83/2/5 81/2/5 77/2/5
f 84/2/5 81/2/5 83/2/5
f 87/2/5 86/2/5 85/2/5
f 88/2/5 86/2/5 87/2/5
f 89/2/6 90/2/6 92/2/6
f 92/2/6 90/2/6 93/2/6
f 93/2/6 90/2/6 94/2/6
f 91/2/6 92/2/6 96/2/6
f 96/2/6 92/2/6 97/2/6
f 94/2/6 95/2/6 98/2/6
f 93/2/6 94/2/6 98/2/6
f 98/2/6 95/2/6 99/2/6
f 99/2/6 95/2/6 100/2/6
f 97/2/6 98/2/6 101/2/6
f 98/2/6 99/2/6 101/2/6
f 101/2/6 99/2/6 102/2/6
f 103/1/6 104/1/6 105/1/6
f 105/1/6 104/1/6 106/1/6
